<svg width="572" height="77" viewBox="0 0 572 77" xmlns="http://www.w3.org/2000/svg">

  <!-- Maze grid (7 rows x 52 columns) -->
  <g>
    <rect x="0" y="0" width="572" height="77" fill="#22223b" />
    <g>
      <!-- Draw grid lines, you can remove this if you want only blocks -->
      <g stroke="#888" stroke-width="0.5">
        <!-- Columns -->
        <g>
          <!-- 52 columns -->
          <!-- x: 0 to 571, step 11 -->
          <!-- width: 11, height: 77 -->
          <!-- Start at x=0, each cell width=11 -->
          <!-- vertical lines -->
          <g>
            <!-- vertical lines -->
            <line x1="0" y1="0" x2="0" y2="77"/>
            <line x1="11" y1="0" x2="11" y2="77"/>
            <line x1="22" y1="0" x2="22" y2="77"/>
            <line x1="33" y1="0" x2="33" y2="77"/>
            <line x1="44" y1="0" x2="44" y2="77"/>
            <line x1="55" y1="0" x2="55" y2="77"/>
            <line x1="66" y1="0" x2="66" y2="77"/>
            <line x1="77" y1="0" x2="77" y2="77"/>
            <line x1="88" y1="0" x2="88" y2="77"/>
            <line x1="99" y1="0" x2="99" y2="77"/>
            <line x1="110" y1="0" x2="110" y2="77"/>
            <line x1="121" y1="0" x2="121" y2="77"/>
            <line x1="132" y1="0" x2="132" y2="77"/>
            <line x1="143" y1="0" x2="143" y2="77"/>
            <line x1="154" y1="0" x2="154" y2="77"/>
            <line x1="165" y1="0" x2="165" y2="77"/>
            <line x1="176" y1="0" x2="176" y2="77"/>
            <line x1="187" y1="0" x2="187" y2="77"/>
            <line x1="198" y1="0" x2="198" y2="77"/>
            <line x1="209" y1="0" x2="209" y2="77"/>
            <line x1="220" y1="0" x2="220" y2="77"/>
            <line x1="231" y1="0" x2="231" y2="77"/>
            <line x1="242" y1="0" x2="242" y2="77"/>
            <line x1="253" y1="0" x2="253" y2="77"/>
            <line x1="264" y1="0" x2="264" y2="77"/>
            <line x1="275" y1="0" x2="275" y2="77"/>
            <line x1="286" y1="0" x2="286" y2="77"/>
            <line x1="297" y1="0" x2="297" y2="77"/>
            <line x1="308" y1="0" x2="308" y2="77"/>
            <line x1="319" y1="0" x2="319" y2="77"/>
            <line x1="330" y1="0" x2="330" y2="77"/>
            <line x1="341" y1="0" x2="341" y2="77"/>
            <line x1="352" y1="0" x2="352" y2="77"/>
            <line x1="363" y1="0" x2="363" y2="77"/>
            <line x1="374" y1="0" x2="374" y2="77"/>
            <line x1="385" y1="0" x2="385" y2="77"/>
            <line x1="396" y1="0" x2="396" y2="77"/>
            <line x1="407" y1="0" x2="407" y2="77"/>
            <line x1="418" y1="0" x2="418" y2="77"/>
            <line x1="429" y1="0" x2="429" y2="77"/>
            <line x1="440" y1="0" x2="440" y2="77"/>
            <line x1="451" y1="0" x2="451" y2="77"/>
            <line x1="462" y1="0" x2="462" y2="77"/>
            <line x1="473" y1="0" x2="473" y2="77"/>
            <line x1="484" y1="0" x2="484" y2="77"/>
            <line x1="495" y1="0" x2="495" y2="77"/>
            <line x1="506" y1="0" x2="506" y2="77"/>
            <line x1="517" y1="0" x2="517" y2="77"/>
            <line x1="528" y1="0" x2="528" y2="77"/>
            <line x1="539" y1="0" x2="539" y2="77"/>
            <line x1="550" y1="0" x2="550" y2="77"/>
            <line x1="561" y1="0" x2="561" y2="77"/>
            <line x1="571" y1="0" x2="571" y2="77"/>
          </g>
        </g>
        <!-- Rows -->
        <g>
          <!-- 7 rows -->
          <line x1="0" y1="0" x2="572" y2="0"/>
          <line x1="0" y1="11" x2="572" y2="11"/>
          <line x1="0" y1="22" x2="572" y2="22"/>
          <line x1="0" y1="33" x2="572" y2="33"/>
          <line x1="0" y1="44" x2="572" y2="44"/>
          <line x1="0" y1="55" x2="572" y2="55"/>
          <line x1="0" y1="66" x2="572" y2="66"/>
          <line x1="0" y1="76" x2="572" y2="76"/>
        </g>
      </g>
    </g>
  </g>

  <!-- Pacman -->
  <g>
    <circle cx="22" cy="22" r="8" fill="yellow" />
    <path d="M22,22 L30,18 A8,8 0 1,1 30,26 Z" fill="#22223b" />
    <circle cx="25" cy="18" r="1.2" fill="#22223b"/>
  </g>

  <!-- Ghosts -->
  <g>
    <rect x="440" y="66" width="12" height="9" rx="2" fill="#ff595e"/>
    <circle cx="446" cy="70" r="2" fill="#fff"/>
    <circle cx="452" cy="70" r="2" fill="#fff"/>
    <circle cx="446" cy="70" r="1" fill="#22223b"/>
    <circle cx="452" cy="70" r="1" fill="#22223b"/>
  </g>
  <g>
    <rect x="55" y="44" width="12" height="9" rx="2" fill="#1982c4"/>
    <circle cx="61" cy="48" r="2" fill="#fff"/>
    <circle cx="67" cy="48" r="2" fill="#fff"/>
    <circle cx="61" cy="48" r="1" fill="#22223b"/>
    <circle cx="67" cy="48" r="1" fill="#22223b"/>
  </g>
  <g>
    <rect x="110" y="11" width="12" height="9" rx="2" fill="#8ac926"/>
    <circle cx="116" cy="15" r="2" fill="#fff"/>
    <circle cx="122" cy="15" r="2" fill="#fff"/>
    <circle cx="116" cy="15" r="1" fill="#22223b"/>
    <circle cx="122" cy="15" r="1" fill="#22223b"/>
  </g>
  <g>
    <rect x="550" y="33" width="12" height="9" rx="2" fill="#ffca3a"/>
    <circle cx="556" cy="37" r="2" fill="#fff"/>
    <circle cx="562" cy="37" r="2" fill="#fff"/>
    <circle cx="556" cy="37" r="1" fill="#22223b"/>
    <circle cx="562" cy="37" r="1" fill="#22223b"/>
  </g>
  
  <!-- Dots for some commit days (example only) -->
  <g>
    <circle cx="44" cy="11" r="1" fill="#fff"/>
    <circle cx="77" cy="55" r="1" fill="#fff"/>
    <circle cx="220" cy="33" r="1" fill="#fff"/>
    <circle cx="352" cy="66" r="1" fill="#fff"/>
    <circle cx="495" cy="22" r="1" fill="#fff"/>
  </g>
</svg>
